# AST/ASF file generated using VICON BodyLanguage
# -----------------------------------------------
:version 1.10
:name VICON
:units
  mass 1.0
  length 0.45
  angle deg
:documentation
   .ast/.asf automatically generated from VICON data using
   VICON BodyBuilder and BodyLanguage model FoxedUp or BRILLIANT.MOD
:root
   order TX TY TZ RX RY RZ
   axis XYZ
   position 0 0 0  
   orientation 0 0 0 
:bonedata
  begin
     id 1 
     name lhipjoint
     direction 0.677091 -0.635792 0.370561 
     length 2.74323 
     axis 0 0 0  XYZ
  end
  begin
     id 2 
     name lfemur
     direction 0.34202 -0.939693 0  
     length 7.44995  
     axis 0 0 20  XYZ
    dof rx ry rz
    limits (-160.0 20.0)
           (-70.0 70.0)
           (-60.0 70.0)
  end
  begin
     id 3 
     name ltibia
     direction 0.34202 -0.939693 0   
     length 7.34467   
     axis 0 0 20   XYZ
    dof rx
    limits (-10.0 170.0)
  end
  begin
     id 4 
     name lfoot
     direction 0.101953 -0.280114 0.954537   
     length 1.72105   
     axis -90 7.62852e-016 20   XYZ
    dof rx rz
    limits (-45.0 90.0)
           (-70.0 20.0)
  end
  begin
     id 5 
     name ltoes
     direction 1.53537e-011 -4.21915e-011 1   
     length 0.865872   
     axis -90 7.62852e-016 20   XYZ
    dof rx
    limits (-90.0 20.0)
  end
  begin
     id 6 
     name rhipjoint
     direction -0.695735 -0.620586 0.361699   
     length 2.81045  
     axis 0 0 0  XYZ 
  end
  begin
     id 7 
     name rfemur
     direction -0.34202 -0.939693 0   
     length 7.29387   
     axis 0 0 -20   XYZ
    dof rx ry rz
    limits (-160.0 20.0)
           (-70.0 70.0)
           (-70.0 60.0)
  end
  begin
     id 8 
     name rtibia
     direction -0.34202 -0.939693 0   
     length 7.44935   
     axis 0 0 -20   XYZ
    dof rx
    limits (-10.0 170.0)
 end
 begin
     id 9 
     name rfoot
     direction -0.104163 -0.286184 0.952496   
     length 1.77731  
     axis -90 -7.62852e-016 -20   XYZ
    dof rx rz
    limits (-45.0 90.0)
           (-20.0 70.0)
  end
  begin
     id 10 
     name rtoes
     direction -1.5355e-011 -4.21888e-011 1   
     length 0.892424   
     axis -90 -7.62852e-016 -20   XYZ
    dof rx
    limits (-90.0 20.0)
  end
  begin
     id 11 
     name lowerback
     direction 0.0100202 0.997226 -0.0737589   
     length 2.16892   
     axis 0 0 0   XYZ
    dof rx ry rz
    limits (-20.0 45.0)
           (-30.0 30.0)
           (-30.0 30.0)
  end
  begin
     id 12 
     name upperback
     direction 0.00432398 0.999988 -0.00215019   
     length 2.17326   
     axis 0 0 0   XYZ
    dof rx ry rz
    limits (-20.0 45.0)
           (-30.0 30.0)
           (-30.0 30.0)
  end
  begin
     id 13 
     name thorax
     direction -0.00195047 0.999485 0.0320434   
     length 2.18139   
     axis 0 0 0   XYZ
    dof rx ry rz
    limits (-20.0 45.0)
           (-30.0 30.0)
           (-30.0 30.0)
  end
  begin
     id 14 
     name lowerneck
     direction 0.00782762 0.986241 0.165128   
     length 1.88415   
     axis 0 0 0   XYZ
    dof rx ry rz
    limits (-20.0 45.0)
           (-30.0 30.0)
           (-30.0 30.0)
  end
  begin
     id 15 
     name upperneck
     direction 0.00988667 0.981098 -0.193258   
     length 1.9242   
     axis 0 0 0   XYZ
    dof rx ry rz
    limits (-20.0 45.0)
           (-30.0 30.0)
           (-30.0 30.0)
  end
  begin
     id 16
     name head
     direction 0.00252199 0.996513 -0.0833958  
     length 1.93887  
     axis 0 0 0   XYZ
    dof rx ry rz
    limits (-20.0 45.0)
           (-30.0 30.0)
           (-30.0 30.0)
  end
  begin
     id 17 
     name lclavicle
     direction 0.929492 0.368193 -0.0218667  
     length 3.5955  
     axis 0 0 0   XYZ
    dof ry rz
    limits (-20.0 10.0)
           (0.0 20.0)
  end
  begin
     id 18 
     name lhumerus
     direction 1 -4.48972e-011 1.41911e-027   
     length 5.2795   
     axis 180 -30 -90   XYZ
    dof rx ry rz
    limits (-60.0 90.0)
           (-90.0 90.0)
           (-90.0 90.0)
  end
  begin
     id 19
     name lradius
     direction 1 -4.48963e-011 7.05772e-027   
     length 3.53504   
     axis 180 -30 -90   XYZ
    dof rx
    limits (-10.0 170.0)
  end
  begin
     id 20
     name lwrist
     direction 1 -4.48957e-011 9.54866e-027   
     length 1.76752   
     axis -7.69462e-015 90 90   XYZ
    dof ry
    limits (-180.0 0.0)
 end
  begin
     id 21 
     name lhand
     direction 1 -4.48979e-011 1.90973e-026   
     length 0.667948   
     axis -1.21857e-014 90 90   XYZ
    dof rx rz
    limits (-90.0 90.0)
           (-45.0 45.0)
  end
  begin
     id 22 
     name lfingers
     direction 1 -4.48987e-011 3.81946e-026   
     length 0.538517   
     axis -2.43714e-014 90 90   XYZ
    dof rx
    limits (0.0 90.0)
  end
  begin
     id 23
     name lthumb
     direction 0.707107 -6.34962e-011 0.707107   
     length 0.773206   
     axis -90 45 2.85299e-015   XYZ
    dof rx rz
    limits (-45.0 45.0)
           (-45.0 45.0)
  end
  begin
     id 24 
     name rclavicle
     direction -0.898763 0.414256 -0.143584   
     length 3.5176  
     axis 0 0 0   XYZ 
    dof ry rz
    limits (-10.0 20.0)
           (-20.0 0.0)
  end
  begin
     id 25 
     name rhumerus
     direction -1 -4.48971e-011 1.129e-027  
     length 5.25035   
     axis 180 30 90   XYZ
    dof rx ry rz
    limits (-90.0 60.0)
           (-90.0 90.0)
           (-90.0 90.0)
  end
  begin
     id 26 
     name rradius
     direction -1 -4.48955e-011 6.34664e-027   
     length 3.58884   
     axis 180 30 90   XYZ
    dof rx
    limits (-10.0 170.0)
  end
  begin
     id 27 
     name rwrist
     direction -1 -4.48966e-011 9.54866e-027   
     length 1.79442   
     axis -7.69462e-015 -90 -90   XYZ
    dof ry
    limits (-180.0 0.0)
  end
  begin
     id 28
     name rhand
     direction -1 -4.48973e-011 1.90973e-026   
     length 0.779235   
     axis -1.21857e-014 -90 -90   XYZ
    dof rx rz
    limits (-90.0 90.0)
           (-45.0 45.0)
  end
  begin
     id 29
     name rfingers
     direction -1 -4.48984e-011 3.81946e-026   
     length 0.62824   
     axis -2.43714e-014 -90 -90   XYZ
    dof rx
    limits (0.0 90.0)
  end
  begin
     id 30
     name rthumb
     direction -0.707107 -6.34968e-011 0.707107   
     length 0.90203   
     axis -90 -45 -2.85299e-015   XYZ
    dof rx rz
    limits (-45.0 45.0)
           (-45.0 45.0)
  end
:hierarchy
  begin
    root lhipjoint rhipjoint lowerback
    lhipjoint lfemur
    lfemur ltibia
    ltibia lfoot
    lfoot ltoes
    rhipjoint rfemur
    rfemur rtibia
    rtibia rfoot
    rfoot rtoes
    lowerback upperback
    upperback thorax
    thorax lowerneck lclavicle rclavicle
    lowerneck upperneck
    upperneck head
    lclavicle lhumerus
    lhumerus lradius
    lradius lwrist
    lwrist lhand lthumb
    lhand lfingers
    rclavicle rhumerus
    rhumerus rradius
    rradius rwrist
    rwrist rhand rthumb
    rhand rfingers
  end

#!OML:ASF I:\Random Stuff\random\construction\7_22_03\Session 2\subj1.ASF
:FULLY-SPECIFIED
:DEGREES
71
root -6.43098 17.7549 0.75324 3.90284 58.0079 -4.83727
lowerback 4.46067 1.17209 2.63657
upperback -1.95189 1.8225 1.76277
thorax -4.49734 0.861086 0.193276
lowerneck -22.3464 -4.73682 -6.48029
upperneck 36.8663 -7.45651 8.76559
head 18.234 -2.39741 3.68202
rclavicle 2.97183e-014 2.06736e-014
rhumerus -27.2882 7.41787 -82.1354
rradius 27.5958
rwrist 5.63806
rhand -22.9183 18.5381
rfingers 7.12502
rthumb 3.52196 -11.4125
lclavicle 2.97183e-014 2.06736e-014
lhumerus -38.1091 -6.98552 90.1703
lradius 43.5667
lwrist 35.2492
lhand -18.1071 61.2177
lfingers 7.12502
lthumb -171.833 88.9602
rfemur -4.05172 12.2981 16.4725
rtibia 0.407461
rfoot -2.12335 -16.14
rtoes -14.0109
lfemur -14.3527 -13.7909 -11.2507
ltibia 19.9638
lfoot -13.319 12.7579
ltoes -33.4058
72
root -6.45852 17.7692 0.725072 4.56805 58.1467 -4.41606
lowerback 4.84007 1.22159 2.70931
upperback -1.76285 1.90499 1.82097
thorax -4.51442 0.901236 0.199078
lowerneck -22.141 -4.97857 -6.49558
upperneck 36.6187 -7.78089 8.67905
head 18.0753 -2.54961 3.55532
rclavicle -9.49694e-014 1.19271e-014
rhumerus -26.0622 7.96009 -82.0225
rradius 28.086
rwrist 5.60368
rhand -23.0558 18.7222
rfingers 7.12502
rthumb 3.38922 -11.2306
lclavicle -9.49694e-014 1.19271e-014
lhumerus -38.1698 -7.53273 90.4164
lradius 45.2205
lwrist 35.4652
lhand -18.0249 61.0347
lfingers 7.12502
lthumb -171.754 89.1463
rfemur -4.36731 12.1054 16.0623
rtibia 4.77083e-015
rfoot -1.63593 -16.0452
rtoes -14.3021
lfemur -14.7948 -13.5824 -11.4425
ltibia 19.7745
lfoot -12.9617 12.4805
ltoes -33.6565
73
root -6.48983 17.7838 0.699311 4.90819 58.2269 -4.44154
lowerback 5.18366 1.30792 2.99208
upperback -1.53854 2.05387 1.95761
thorax -4.4694 0.971252 0.1635
lowerneck -21.9722 -5.20721 -6.37841
upperneck 36.3095 -8.06309 8.41319
head 17.8651 -2.69378 3.32693
rclavicle -9.323e-014 -7.15625e-015
rhumerus -24.7234 8.36285 -81.8407
rradius 28.5641
rwrist 5.63797
rhand -23.2067 18.7344
rfingers 7.12502
rthumb 3.24345 -11.2207
lclavicle -9.323e-014 -7.15625e-015
lhumerus -38.0792 -7.98508 90.5959
lradius 46.6789
lwrist 35.5218
lhand -17.8326 60.8458
lfingers 7.12502
lthumb -171.568 89.3425
rfemur -5.60115 12.0127 16.0578
rtibia 1.26659
rfoot -1.89588 -16.1528
rtoes -15.0479
lfemur -15.2749 -13.3421 -11.34
ltibia 19.5361
lfoot -12.6176 12.1961
ltoes -33.4766
74
root -6.52523 17.7955 0.679417 5.15543 58.2783 -4.54792
lowerback 5.52568 1.41885 3.2199
upperback -1.2572 2.23437 2.15457
thorax -4.36708 1.06125 0.218174
lowerneck -21.5665 -5.43058 -6.48208
upperneck 35.8684 -8.35133 8.42467
head 17.5597 -2.84037 3.26625
rclavicle 2.93207e-014 5.56597e-015
rhumerus -23.2764 8.58042 -81.5218
rradius 28.9724
rwrist 5.76817
rhand -23.2365 18.8792
rfingers 7.12502
rthumb 3.21471 -11.0764
lclavicle 2.93207e-014 5.56597e-015
lhumerus -37.913 -8.3085 90.73
lradius 47.9814
lwrist 35.4668
lhand -17.7905 60.6641
lfingers 7.12502
lthumb -171.528 89.5258
rfemur -6.73602 11.9514 16.0765
rtibia 2.33957
rfoot -2.00141 -16.2226
rtoes -15.8998
lfemur -15.7468 -13.0172 -11.1815
ltibia 19.3367
lfoot -12.3228 11.8471
ltoes -33.2915
75
root -6.56444 17.8056 0.657557 5.62204 58.4733 -4.35973
lowerback 5.98773 1.49472 3.35147
upperback -0.99728 2.36682 2.30503
thorax -4.35709 1.12796 0.278391
lowerneck -21.2884 -5.63623 -6.5221
upperneck 35.4406 -8.64854 8.47192
head 17.2995 -2.97436 3.21093
rclavicle 6.61953e-014 -1.43125e-014
rhumerus -21.8767 8.66317 -81.1617
rradius 29.2999
rwrist 6.03457
rhand -23.6456 18.9836
rfingers 7.12502
rthumb 2.81962 -10.9776
lclavicle 6.61953e-014 -1.43125e-014
lhumerus -37.7407 -8.7309 90.8633
lradius 49.1448
lwrist 35.4884
lhand -17.8226 60.3593
lfingers 7.12502
lthumb -171.558 89.8294
rfemur -7.6438 11.7234 15.8989
rtibia 3.05351
rfoot -1.92621 -16.2527
rtoes -16.2405
lfemur -16.2821 -12.6976 -11.2074
ltibia 19.2413
lfoot -12.0555 11.375
ltoes -33.3708
76
root -6.61279 17.8134 0.630104 5.94667 58.7141 -4.39201
lowerback 6.60997 1.57362 3.6774
upperback -0.78084 2.53336 2.48003
thorax -4.47528 1.20538 0.245769
lowerneck -22.3052 -6.17105 -6.28784
upperneck 36.1725 -9.41124 8.04976
head 17.9992 -3.26238 2.8241
rclavicle -7.35503e-015 8.74653e-015
rhumerus -20.4445 8.6199 -80.7088
rradius 29.5168
rwrist 6.47336
rhand -24.1022 19.0172
rfingers 7.12502
rthumb 2.3787 -10.9493
lclavicle -7.35503e-015 8.74653e-015
lhumerus -37.5118 -9.34765 91.063
lradius 50.2013
lwrist 35.7254
lhand -17.8749 60.4319
lfingers 7.12502
lthumb -171.609 89.7548
rfemur -8.85907 11.4596 15.8463
rtibia 4.19741
rfoot -2.01144 -16.3222
rtoes -16.3903
lfemur -16.9485 -12.4348 -11.0638
ltibia 19.1714
lfoot -11.7344 10.9365
ltoes -33.4767
77
root -6.66382 17.8186 0.602436 6.25015 58.9376 -4.4372
lowerback 7.27955 1.67164 4.02106
upperback -0.505573 2.73337 2.67486
thorax -4.55682 1.30062 0.217855
lowerneck -22.3139 -6.53754 -6.43191
upperneck 35.9071 -9.88695 8.03614
head 17.9176 -3.4803 2.7215
rclavicle -2.22639e-014 6.36111e-015
rhumerus -18.8148 8.56676 -80.1315
rradius 29.5853
rwrist 6.86113
rhand -24.4415 18.9331
rfingers 7.12502
rthumb 2.05094 -11.0368
lclavicle -2.22639e-014 6.36111e-015
lhumerus -37.14 -9.96029 91.2452
lradius 51.07
lwrist 35.8392
lhand -17.9462 60.5279
lfingers 7.12502
lthumb -171.678 89.656
rfemur -10.2515 11.2103 15.7823
rtibia 5.66806
rfoot -2.22236 -16.4077
rtoes -17.2426
lfemur -17.6097 -12.1641 -10.9107
ltibia 19.0936
lfoot -11.3794 10.5011
ltoes -33.477
